<?xml version="1.0" standalone="no"?>
<!DOCTYPE svg PUBLIC "-//W3C//DTD SVG 20010904//EN"
 "http://www.w3.org/TR/2001/REC-SVG-20010904/DTD/svg10.dtd">
<svg version="1.0" xmlns="http://www.w3.org/2000/svg"
 width="80.000000pt" height="80.000000pt" viewBox="0 0 80.000000 80.000000"
 preserveAspectRatio="xMidYMid meet">
<metadata>
Created by potrace 1.14, written by Peter Selinger 2001-2017
</metadata>
<g transform="translate(0.000000,80.000000) scale(0.100000,-0.100000)"
fill="#000000" stroke="none">
<path d="M329 749 c-27 -27 -24 -67 11 -131 l30 -55 -26 -11 c-22 -11 -28 -9
-51 14 l-25 25 -35 -37 c-32 -35 -33 -39 -17 -51 12 -9 22 -9 36 -2 11 6 22 9
24 6 2 -2 -6 -9 -19 -16 -39 -21 -49 -46 -33 -85 17 -41 27 -48 72 -49 54 -2
83 59 53 114 -8 17 -7 23 8 35 30 22 40 17 66 -36 l25 -50 -43 -26 c-55 -32
-66 -46 -69 -86 -3 -57 89 -162 153 -174 53 -10 72 19 66 99 -3 34 -13 82 -22
105 -12 33 -13 46 -5 51 52 32 84 141 42 141 -11 0 -21 -3 -21 -7 -1 -5 -3
-18 -4 -29 -3 -29 -13 -44 -31 -44 -9 0 -12 -5 -8 -12 4 -7 3 -8 -5 -4 -6 4
-23 30 -37 58 -25 50 -26 51 -8 90 22 50 21 68 -8 123 -33 62 -83 80 -119 44z
m73 -78 c15 -28 22 -54 18 -61 -8 -14 -30 -5 -30 12 0 5 -8 22 -18 36 -16 24
-19 36 -13 57 4 16 21 -1 43 -44z m-89 -223 c6 -18 -11 -48 -27 -48 -8 0 -16
9 -19 21 -5 20 -5 20 16 2 18 -15 19 -15 8 -1 -13 17 -8 38 9 38 4 0 10 -6 13
-12z m179 -133 c8 -22 15 -61 17 -87 3 -62 -14 -63 -74 -5 -43 40 -61 82 -46
105 9 16 75 42 83 34 4 -4 13 -25 20 -47z"/>
</g>
</svg>
